<?xml version="1.0" encoding="UTF-8" standalone="no"?>
<svg
   xmlns:dc="http://purl.org/dc/elements/1.1/"
   xmlns:cc="http://creativecommons.org/ns#"
   xmlns:rdf="http://www.w3.org/1999/02/22-rdf-syntax-ns#"
   xmlns:svg="http://www.w3.org/2000/svg"
   xmlns="http://www.w3.org/2000/svg"
   xmlns:sodipodi="http://sodipodi.sourceforge.net/DTD/sodipodi-0.dtd"
   xmlns:inkscape="http://www.inkscape.org/namespaces/inkscape"
   width="480"
   height="140"
   viewBox="0 0 480 140"
   fill="none"
   role="img"
   aria-label="carfinanced"
   version="1.1"
   id="svg6"
   sodipodi:docname="carfinanced-header-logo.svg"
   inkscape:version="0.92.4 (5da689c313, 2019-01-14)">
  <metadata
     id="metadata12">
    <rdf:RDF>
      <cc:Work
         rdf:about="">
        <dc:format>image/svg+xml</dc:format>
        <dc:type
           rdf:resource="http://purl.org/dc/dcmitype/StillImage" />
      </cc:Work>
    </rdf:RDF>
  </metadata>
  <defs
     id="defs10">
    <style
       id="style822">
      .cls-1 {
        fill: #fe666c;
      }
    </style>
  </defs>
  <sodipodi:namedview
     pagecolor="#ffffff"
     bordercolor="#666666"
     borderopacity="1"
     objecttolerance="10"
     gridtolerance="10"
     guidetolerance="10"
     inkscape:pageopacity="0"
     inkscape:pageshadow="2"
     inkscape:window-width="1920"
     inkscape:window-height="991"
     id="namedview8"
     showgrid="false"
     inkscape:zoom="0.99878833"
     inkscape:cx="107.50773"
     inkscape:cy="144.94873"
     inkscape:window-x="-9"
     inkscape:window-y="-9"
     inkscape:window-maximized="1"
     inkscape:current-layer="svg6" />
  <g
     id="border"
     transform="matrix(0.52814385,0,0,0.52814385,6.7048234,12.657876)"
     style="fill:#ffffff">
    <path
       id="path826"
       d="M 774.37,0 H 108.29 C 48.58,0 0,48.58 0,108.29 v 2.14 c 0,59.71 48.58,108.29 108.29,108.29 h 666.08 c 59.71,0 108.29,-48.58 108.29,-108.29 v -2.14 C 882.66,48.58 834.08,0 774.37,0 Z m 88.98,110.43 c 0,49.06 -39.91,88.97 -88.97,88.97 H 108.29 c -49.06,0 -88.97,-39.91 -88.97,-88.97 v -2.14 c 0,-49.06 39.91,-88.97 88.97,-88.97 h 666.08 c 49.06,0 88.97,39.91 88.97,88.97 v 2.14 z"
       class="cls-1"
       inkscape:connector-curvature="0"
       style="fill:#ffffff" />
  </g>
  <g
     id="name"
     transform="matrix(0.52814385,0,0,0.52814385,6.7048234,12.657876)"
     style="fill:#ffffff">
    <path
       id="path829"
       d="m 110.25,99.58 c 5.16,0 8.63,2.5 10.43,7.5 h 21.33 c -1.72,-7.81 -5.33,-13.87 -10.84,-18.16 -5.51,-4.3 -12.36,-6.45 -20.57,-6.45 -6.4,0 -12.09,1.37 -17.05,4.1 -4.96,2.74 -8.83,6.64 -11.6,11.72 -2.78,5.08 -4.16,11.02 -4.16,17.81 0,6.79 1.39,12.74 4.16,17.82 2.77,5.08 6.64,8.98 11.6,11.72 4.96,2.74 10.64,4.11 17.05,4.11 8.13,0 14.96,-2.19 20.51,-6.57 5.55,-4.37 9.18,-10.39 10.9,-18.05 h -21.33 c -1.8,5 -5.27,7.5 -10.43,7.5 -3.68,0 -6.6,-1.43 -8.79,-4.28 -2.18,-2.85 -3.28,-6.93 -3.28,-12.25 0,-5.32 1.1,-9.39 3.28,-12.25 2.19,-2.85 5.12,-4.28 8.79,-4.28 z"
       class="cls-1"
       inkscape:connector-curvature="0"
       style="fill:#ffffff" />
    <path
       id="path831"
       d="m 197.67,92.66 c -1.87,-3.05 -4.55,-5.51 -8.03,-7.38 -3.48,-1.87 -7.52,-2.81 -12.13,-2.81 -5.39,0 -10.28,1.37 -14.65,4.1 -4.38,2.74 -7.84,6.64 -10.37,11.72 -2.54,5.08 -3.81,10.98 -3.81,17.7 0,6.72 1.27,12.64 3.81,17.75 2.54,5.12 5.99,9.07 10.37,11.84 4.37,2.78 9.22,4.16 14.53,4.16 4.61,0 8.66,-0.94 12.13,-2.81 3.48,-1.87 6.19,-4.34 8.15,-7.39 v 9.26 h 20.04 V 83.4 h -20.04 z m -4.16,35.28 c -2.77,2.89 -6.15,4.34 -10.13,4.34 -3.98,0 -7.37,-1.46 -10.14,-4.4 -2.78,-2.93 -4.16,-6.9 -4.16,-11.89 0,-4.99 1.39,-8.93 4.16,-11.78 2.77,-2.85 6.15,-4.28 10.14,-4.28 3.99,0 7.36,1.44 10.13,4.33 2.78,2.89 4.16,6.84 4.16,11.84 0,5 -1.39,8.95 -4.16,11.84 z"
       class="cls-1"
       inkscape:connector-curvature="0"
       style="fill:#ffffff" />
    <path
       id="path833"
       d="m 252.29,94.31 v -10.9 h -20.04 v 65.4 h 20.04 v -30.35 c 0,-5.39 1.25,-9.16 3.75,-11.31 2.5,-2.15 6.25,-3.22 11.25,-3.22 h 5.51 V 82.72 c -4.3,0 -8.2,1.03 -11.72,3.1 -3.51,2.07 -6.44,4.91 -8.79,8.5 z"
       class="cls-1"
       inkscape:connector-curvature="0"
       style="fill:#ffffff" />
    <path
       id="path835"
       d="m 304.44,82.82 c 0,-3.44 0.78,-5.82 2.35,-7.15 1.56,-1.33 4.25,-1.88 8.08,-1.64 v -17 c -0.7,-0.08 -1.8,-0.12 -3.28,-0.12 -8.91,0 -15.67,2.09 -20.28,6.27 -4.61,4.18 -6.91,10.3 -6.91,18.34 v 1.88 h -7.27 v 16.64 h 7.27 v 48.76 h 20.04 v -48.76 h 10.78 V 83.4 h -10.78 v -0.59 z"
       class="cls-1"
       inkscape:connector-curvature="0"
       style="fill:#ffffff" />
    <path
       id="path837"
       d="m 334.68,54.93 c -3.51,0 -6.39,1.03 -8.61,3.1 -2.22,2.07 -3.34,4.67 -3.34,7.79 0,3.12 1.12,5.61 3.34,7.68 2.22,2.07 5.1,3.1 8.61,3.1 3.51,0 6.27,-1.03 8.5,-3.1 2.23,-2.07 3.34,-4.63 3.34,-7.68 0,-3.05 -1.11,-5.72 -3.34,-7.79 -2.23,-2.07 -5.06,-3.1 -8.5,-3.1 z"
       class="cls-1"
       inkscape:connector-curvature="0"
       style="fill:#ffffff" />
    <rect
       id="rect839"
       height="65.400002"
       width="20.040001"
       y="83.410004"
       x="324.60001"
       class="cls-1"
       style="fill:#ffffff" />
    <path
       id="path841"
       d="m 399.02,82.7 c -4.3,0 -8.17,0.84 -11.6,2.52 -3.44,1.68 -6.18,3.96 -8.21,6.85 V 83.4 h -20.04 v 65.4 h 20.04 v -35.51 c 0,-4.37 1.14,-7.77 3.4,-10.2 2.27,-2.42 5.31,-3.63 9.14,-3.63 3.83,0 6.87,1.21 9.14,3.63 2.27,2.42 3.4,5.82 3.4,10.2 v 35.51 h 19.92 v -38.21 c 0,-8.67 -2.28,-15.49 -6.85,-20.45 -4.57,-4.96 -10.69,-7.44 -18.34,-7.44 z"
       class="cls-1"
       inkscape:connector-curvature="0"
       style="fill:#ffffff" />
    <path
       id="path843"
       d="m 483.18,92.66 c -1.87,-3.05 -4.55,-5.51 -8.03,-7.38 -3.48,-1.87 -7.52,-2.81 -12.13,-2.81 -5.39,0 -10.28,1.37 -14.65,4.1 -4.38,2.74 -7.84,6.64 -10.37,11.72 -2.54,5.08 -3.81,10.98 -3.81,17.7 0,6.72 1.27,12.64 3.81,17.75 2.54,5.12 5.99,9.07 10.37,11.84 4.37,2.78 9.22,4.16 14.53,4.16 4.61,0 8.66,-0.94 12.13,-2.81 3.48,-1.87 6.19,-4.34 8.15,-7.39 v 9.26 h 20.04 V 83.4 h -20.04 z m -4.17,35.28 c -2.77,2.89 -6.15,4.34 -10.13,4.34 -3.98,0 -7.37,-1.46 -10.14,-4.4 -2.78,-2.93 -4.16,-6.9 -4.16,-11.89 0,-4.99 1.39,-8.93 4.16,-11.78 2.77,-2.85 6.15,-4.28 10.14,-4.28 3.99,0 7.36,1.44 10.13,4.33 2.78,2.89 4.16,6.84 4.16,11.84 0,5 -1.39,8.95 -4.16,11.84 z"
       class="cls-1"
       inkscape:connector-curvature="0"
       style="fill:#ffffff" />
    <path
       id="path845"
       d="m 557.6,82.7 c -4.31,0 -8.16,0.84 -11.62,2.52 -3.43,1.68 -6.16,3.96 -8.2,6.85 V 83.4 h -20.03 v 65.4 h 20.03 v -35.51 c 0,-4.37 1.14,-7.77 3.4,-10.2 2.27,-2.42 5.32,-3.63 9.16,-3.63 3.84,0 6.87,1.21 9.14,3.63 2.27,2.42 3.4,5.82 3.4,10.2 v 35.51 h 19.93 v -38.21 c 0,-8.67 -2.29,-15.49 -6.87,-20.45 -4.56,-4.96 -10.68,-7.44 -18.33,-7.44 z"
       class="cls-1"
       inkscape:connector-curvature="0"
       style="fill:#ffffff" />
    <path
       id="path847"
       d="m 625.22,99.58 c 5.16,0 8.63,2.5 10.42,7.5 h 21.34 c -1.72,-7.81 -5.33,-13.87 -10.84,-18.16 -5.5,-4.3 -12.36,-6.45 -20.56,-6.45 -6.41,0 -12.09,1.37 -17.05,4.1 -4.97,2.74 -8.83,6.64 -11.61,11.72 -2.78,5.08 -4.16,11.02 -4.16,17.81 0,6.79 1.38,12.74 4.16,17.82 2.78,5.08 6.64,8.98 11.61,11.72 4.96,2.74 10.64,4.11 17.05,4.11 8.13,0 14.96,-2.19 20.51,-6.57 5.55,-4.37 9.18,-10.39 10.9,-18.05 h -21.34 c -1.79,5 -5.26,7.5 -10.42,7.5 -3.67,0 -6.61,-1.43 -8.79,-4.28 -2.18,-2.85 -3.28,-6.93 -3.28,-12.25 0,-5.32 1.1,-9.39 3.28,-12.25 2.18,-2.85 5.12,-4.28 8.79,-4.28 z"
       class="cls-1"
       inkscape:connector-curvature="0"
       style="fill:#ffffff" />
    <path
       id="path849"
       d="m 713.59,86.46 c -4.92,-2.66 -10.55,-3.99 -16.88,-3.99 -6.33,0 -12.23,1.37 -17.23,4.1 -5,2.74 -8.89,6.64 -11.66,11.72 -2.78,5.08 -4.16,11.02 -4.16,17.81 0,6.79 1.41,12.74 4.22,17.82 2.81,5.08 6.72,8.98 11.72,11.72 5,2.74 10.7,4.11 17.11,4.11 5.31,0 10.12,-0.98 14.42,-2.93 4.29,-1.95 7.87,-4.64 10.72,-8.09 2.85,-3.43 4.83,-7.3 5.92,-11.6 h -21.34 c -1.96,4.22 -5.43,6.33 -10.42,6.33 -3.37,0 -6.2,-1.07 -8.5,-3.22 -2.31,-2.15 -3.61,-5.26 -3.93,-9.32 h 45.35 c 0.24,-2.03 0.35,-3.99 0.35,-5.86 0,-6.56 -1.38,-12.3 -4.16,-17.23 -2.78,-4.92 -6.62,-8.71 -11.54,-11.36 z m -29.89,23.32 c 0.55,-3.59 1.97,-6.37 4.28,-8.32 2.3,-1.95 5.13,-2.93 8.5,-2.93 3.37,0 6.45,1.02 8.78,3.05 2.35,2.03 3.52,4.76 3.52,8.2 z"
       class="cls-1"
       inkscape:connector-curvature="0"
       style="fill:#ffffff" />
    <path
       id="path851"
       d="m 784.84,92.43 c -2.03,-3.05 -4.82,-5.47 -8.37,-7.27 -3.56,-1.79 -7.49,-2.69 -11.78,-2.69 -5.39,0 -10.27,1.37 -14.65,4.1 -4.38,2.74 -7.83,6.64 -10.38,11.72 -2.54,5.08 -3.81,10.98 -3.81,17.7 0,6.72 1.27,12.64 3.81,17.75 2.55,5.12 6,9.07 10.38,11.84 4.38,2.78 9.26,4.16 14.65,4.16 4.61,0 8.65,-0.94 12.13,-2.81 3.47,-1.87 6.15,-4.38 8.02,-7.5 v 9.38 h 20.05 V 62.08 h -20.05 z m -4.16,35.51 c -2.78,2.89 -6.15,4.34 -10.14,4.34 -3.99,0 -7.36,-1.46 -10.14,-4.4 -2.77,-2.93 -4.16,-6.9 -4.16,-11.89 0,-4.99 1.39,-8.93 4.16,-11.78 2.78,-2.85 6.16,-4.28 10.14,-4.28 3.98,0 7.36,1.44 10.14,4.33 2.78,2.89 4.16,6.84 4.16,11.84 0,5 -1.38,8.95 -4.16,11.84 z"
       class="cls-1"
       inkscape:connector-curvature="0"
       style="fill:#ffffff" />
  </g>
</svg>
